<svg version="1.1" id="Layer_1" xmlns="http://www.w3.org/2000/svg" xmlns:xlink="http://www.w3.org/1999/xlink" x="0px" y="0px"
	 width="100%" viewBox="0 0 500 500" enable-background="new 0 0 500 500" xml:space="preserve">
<path fill="#FFFFFF" opacity="1.000000" stroke="none" 
	d="
M277.000000,501.000000 
	C184.666687,501.000000 92.833374,501.000000 1.000049,501.000000 
	C1.000033,334.333405 1.000033,167.666794 1.000016,1.000139 
	C167.666565,1.000093 334.333130,1.000093 500.999756,1.000046 
	C500.999847,167.666519 500.999847,334.333038 500.999939,500.999786 
	C426.500000,501.000000 352.000000,501.000000 277.000000,501.000000 
M168.061600,296.767914 
	C169.583405,300.232117 171.105194,303.696320 172.836487,307.827301 
	C175.869492,310.260834 178.902481,312.694366 182.355942,315.742493 
	C193.075958,319.255524 204.055435,317.805756 215.797668,317.598053 
	C235.764908,317.681152 255.736664,318.049988 275.697540,317.732971 
	C286.507996,317.561340 294.700775,312.416412 299.361115,301.478210 
	C299.855225,298.651367 300.349335,295.824493 300.964355,292.287598 
	C301.056335,291.135986 301.148346,289.984375 301.280365,288.331573 
	C303.406036,290.231354 305.043121,291.694519 306.970886,293.772125 
	C308.466034,295.336823 309.899506,296.966522 311.467438,298.454498 
	C317.080322,303.781036 321.649750,304.886688 327.197144,302.179382 
	C333.167694,299.265594 334.783936,294.194031 334.099121,287.080780 
	C334.049988,283.054535 334.000854,279.028320 334.100037,274.081970 
	C334.053497,269.721588 334.006958,265.361237 334.102783,260.074463 
	C334.053528,254.715561 334.004272,249.356659 334.092926,243.069656 
	C334.045105,236.713516 333.997253,230.357361 334.092590,223.083801 
	C334.045776,219.055420 333.998932,215.027054 334.084534,210.210861 
	C333.882050,204.746002 330.927887,201.196030 326.038879,199.298462 
	C321.027527,197.353409 316.568909,198.758362 312.769470,202.358643 
	C309.099854,205.835892 305.515259,209.402847 302.057068,212.770920 
	C300.771454,207.871780 299.584167,203.347214 298.207214,198.133606 
	C294.578583,191.002075 289.099945,186.312668 280.170898,184.863892 
	C250.284225,184.692856 220.385803,183.968628 190.516251,184.603271 
	C177.216934,184.885849 167.905930,195.959763 167.898163,208.928253 
	C167.947510,215.617706 167.996841,222.307144 167.897400,229.924088 
	C167.947128,235.950211 167.996841,241.976318 167.905838,248.928528 
	C167.952911,254.285538 167.999985,259.642548 167.901703,265.925598 
	C167.947296,271.282318 167.992874,276.639008 167.899033,282.917603 
	C167.971985,287.278107 168.044937,291.638641 168.061600,296.767914 
z"/>
<path fill="#FF9050" opacity="1.000000" stroke="none" 
	d="
M168.048706,208.001526 
	C167.905930,195.959763 177.216934,184.885849 190.516251,184.603271 
	C220.385803,183.968628 250.284225,184.692856 280.503967,185.341827 
	C278.885193,186.537292 276.988464,187.586945 274.973083,187.921188 
	C254.108917,191.381485 233.217300,194.676743 212.359879,198.176270 
	C210.151093,198.546860 208.111801,199.927673 205.530792,200.900970 
	C201.791122,200.973053 198.503067,201.162231 195.240799,200.951721 
	C190.738861,200.661224 187.209610,202.051804 184.426971,205.998703 
	C178.693863,206.668411 173.371292,207.334976 168.048706,208.001526 
z"/>
<path fill="#FF4BA9" opacity="1.000000" stroke="none" 
	d="
M300.843445,292.997650 
	C300.349335,295.824493 299.855225,298.651367 298.705688,301.734985 
	C296.389374,302.046692 294.698792,301.919281 293.072021,302.183899 
	C268.966766,306.105621 244.860031,310.021118 220.788940,314.144287 
	C218.723862,314.498016 216.908951,316.312256 214.977814,317.448059 
	C204.055435,317.805756 193.075958,319.255524 182.326111,315.091431 
	C182.806030,314.037048 183.270554,313.363647 183.832077,313.269592 
	C200.510193,310.476532 217.217682,307.853119 233.870956,304.921326 
	C238.328506,304.136566 242.625198,302.438080 247.460922,301.094116 
	C256.381500,301.017029 264.840332,300.855133 273.290955,301.049652 
	C278.250336,301.163788 282.067108,299.803589 284.552917,294.999329 
	C290.268372,294.332397 295.555878,293.665009 300.843445,292.997650 
z"/>
<path fill="#FF8D5A" opacity="1.000000" stroke="none" 
	d="
M205.993881,200.839813 
	C208.111801,199.927673 210.151093,198.546860 212.359879,198.176270 
	C233.217300,194.676743 254.108917,191.381485 274.973083,187.921188 
	C276.988464,187.586945 278.885193,186.537292 280.914917,185.456360 
	C289.099945,186.312668 294.578583,191.002075 297.907349,198.643616 
	C292.342438,200.455521 287.077393,201.757431 281.466248,202.913330 
	C278.407684,202.179016 275.699432,201.102600 272.982147,201.079422 
	C250.653671,200.888824 228.323532,200.894028 205.993881,200.839813 
z"/>
<path fill="#FF41AC" opacity="1.000000" stroke="none" 
	d="
M215.387741,317.523071 
	C216.908951,316.312256 218.723862,314.498016 220.788940,314.144287 
	C244.860031,310.021118 268.966766,306.105621 293.072021,302.183899 
	C294.698792,301.919281 296.389374,302.046692 298.487366,301.984863 
	C294.700775,312.416412 286.507996,317.561340 275.697540,317.732971 
	C255.736664,318.049988 235.764908,317.681152 215.387741,317.523071 
z"/>
<path fill="#FF7D67" opacity="1.000000" stroke="none" 
	d="
M281.812347,203.059341 
	C287.077393,201.757431 292.342438,200.455521 298.002167,198.988129 
	C299.584167,203.347214 300.771454,207.871780 302.057068,212.770920 
	C305.515259,209.402847 309.099854,205.835892 312.769470,202.358643 
	C316.568909,198.758362 321.027527,197.353409 326.038879,199.298462 
	C330.927887,201.196030 333.882050,204.746002 333.573914,210.605118 
	C326.722198,211.827988 320.370209,212.581924 314.042450,213.502426 
	C304.145416,214.942139 294.264740,216.494507 284.285919,217.547424 
	C283.400604,212.416901 282.606476,207.738129 281.812347,203.059341 
z"/>
<path fill="#FF4D9E" opacity="1.000000" stroke="none" 
	d="
M300.903870,292.642639 
	C295.555878,293.665009 290.268372,294.332397 284.531830,294.538605 
	C284.181976,290.390015 284.281128,286.702576 284.780396,283.010681 
	C294.889038,281.295929 304.597626,279.585663 314.590881,278.032959 
	C315.612732,278.765442 316.349884,279.340363 317.424042,280.178162 
	C317.700317,278.806152 317.881927,277.904053 318.487549,277.001282 
	C323.924957,276.334381 328.938354,275.668213 333.951752,275.002075 
	C334.000854,279.028320 334.049988,283.054535 333.611938,287.541473 
	C324.309906,289.720673 315.495056,291.439178 306.680237,293.157684 
	C305.043121,291.694519 303.406036,290.231354 301.280365,288.331573 
	C301.148346,289.984375 301.056335,291.135986 300.903870,292.642639 
z"/>
<path fill="#FF766F" opacity="1.000000" stroke="none" 
	d="
M284.377136,217.999176 
	C294.264740,216.494507 304.145416,214.942139 314.042450,213.502426 
	C320.370209,212.581924 326.722198,211.827988 333.507690,210.999023 
	C333.998932,215.027054 334.045776,219.055420 333.597107,223.542480 
	C328.089600,224.668243 323.077637,225.335342 317.998535,225.650543 
	C317.792450,224.285049 317.653442,223.271439 317.454590,221.821136 
	C316.089630,222.819550 315.201263,223.469376 313.846588,224.083801 
	C311.114044,224.250839 308.833252,224.352005 306.584167,224.674362 
	C299.175507,225.736206 291.778259,226.878098 284.287598,227.544067 
	C284.258087,224.065628 284.317596,221.032394 284.377136,217.999176 
z"/>
<path fill="#FF4D9E" opacity="1.000000" stroke="none" 
	d="
M246.995743,301.159058 
	C242.625198,302.438080 238.328506,304.136566 233.870956,304.921326 
	C217.217682,307.853119 200.510193,310.476532 183.832077,313.269592 
	C183.270554,313.363647 182.806030,314.037048 182.115875,314.784149 
	C178.902481,312.694366 175.869492,310.260834 173.124329,307.329712 
	C176.437622,306.216797 179.503342,305.751129 182.478851,304.950226 
	C186.687164,303.817535 190.828827,302.437225 195.464340,301.100616 
	C212.951706,301.078644 229.973724,301.118866 246.995743,301.159058 
z"/>
<path fill="#FF845D" opacity="1.000000" stroke="none" 
	d="
M167.973434,208.464890 
	C173.371292,207.334976 178.693863,206.668411 184.414200,206.413727 
	C184.524109,213.549240 184.236282,220.272873 183.540146,227.006775 
	C178.103302,227.676880 173.074738,228.336731 168.046188,228.996582 
	C167.996841,222.307144 167.947510,215.617706 167.973434,208.464890 
z"/>
<path fill="#FF6A7B" opacity="1.000000" stroke="none" 
	d="
M318.065674,226.002441 
	C323.077637,225.335342 328.089600,224.668243 333.525513,224.001190 
	C333.997253,230.357361 334.045105,236.713516 333.584778,243.534409 
	C328.071075,244.665451 323.065582,245.331726 317.993164,245.533691 
	C317.972748,238.713730 318.019196,232.358078 318.065674,226.002441 
z"/>
<path fill="#FF7B6C" opacity="1.000000" stroke="none" 
	d="
M167.971802,229.460327 
	C173.074738,228.336731 178.103302,227.676880 183.613647,227.470673 
	C184.046295,233.950089 183.997162,239.975876 183.523315,246.001526 
	C178.081253,246.668396 173.063919,247.335419 168.046570,248.002441 
	C167.996841,241.976318 167.947128,235.950211 167.971802,229.460327 
z"/>
<path fill="#FF4BA9" opacity="1.000000" stroke="none" 
	d="
M306.825562,293.464905 
	C315.495056,291.439178 324.309906,289.720673 333.542175,288.000244 
	C334.783936,294.194031 333.167694,299.265594 327.197144,302.179382 
	C321.649750,304.886688 317.080322,303.781036 311.467438,298.454498 
	C309.899506,296.966522 308.466034,295.336823 306.825562,293.464905 
z"/>
<path fill="#FF6A7B" opacity="1.000000" stroke="none" 
	d="
M167.976196,248.465485 
	C173.063919,247.335419 178.081253,246.668396 183.592957,246.464722 
	C184.040710,252.285156 183.994110,257.642242 183.530426,263.001038 
	C178.091263,263.668335 173.069168,264.333954 168.047058,264.999542 
	C167.999985,259.642548 167.952911,254.285538 167.976196,248.465485 
z"/>
<path fill="#FF618B" opacity="1.000000" stroke="none" 
	d="
M318.060059,245.998016 
	C323.065582,245.331726 328.071075,244.665451 333.515808,243.998459 
	C334.004272,249.356659 334.053528,254.715561 333.592957,260.537231 
	C328.073822,261.667053 323.064484,262.334106 317.986084,262.537598 
	C317.964691,256.715393 318.012360,251.356705 318.060059,245.998016 
z"/>
<path fill="#FF6685" opacity="1.000000" stroke="none" 
	d="
M167.974380,265.462585 
	C173.069168,264.333954 178.091263,263.668335 183.602463,263.464172 
	C184.046509,269.282532 184.001450,274.639435 183.516296,279.996765 
	C178.063614,280.663361 173.051025,281.329529 168.038452,281.995728 
	C167.992874,276.639008 167.947296,271.282318 167.974380,265.462585 
z"/>
<path fill="#FF5C92" opacity="1.000000" stroke="none" 
	d="
M167.968750,282.456665 
	C173.051025,281.329529 178.063614,280.663361 183.585159,280.457642 
	C184.131073,285.274658 184.168015,289.631165 183.764206,293.990814 
	C178.254944,294.662354 173.186432,295.330750 168.117905,295.999146 
	C168.044937,291.638641 167.971985,287.278107 167.968750,282.456665 
z"/>
<path fill="#FF5696" opacity="1.000000" stroke="none" 
	d="
M318.055176,263.001129 
	C323.064484,262.334106 328.073822,261.667053 333.521790,261.000427 
	C334.006958,265.361237 334.053497,269.721588 334.025879,274.542023 
	C328.938354,275.668213 323.924957,276.334381 318.415833,276.540955 
	C317.965118,271.721313 318.010132,267.361206 318.055176,263.001129 
z"/>
<path fill="#FF5696" opacity="1.000000" stroke="none" 
	d="
M168.089752,296.383545 
	C173.186432,295.330750 178.254944,294.662354 183.920410,294.289612 
	C186.164902,299.720001 190.117950,301.180786 194.998993,301.162781 
	C190.828827,302.437225 186.687164,303.817535 182.478851,304.950226 
	C179.503342,305.751129 176.437622,306.216797 173.019592,306.996338 
	C171.105194,303.696320 169.583405,300.232117 168.089752,296.383545 
z"/>
<path fill="#FFFDFD" opacity="1.000000" stroke="none" 
	d="
M195.464340,301.100616 
	C190.117950,301.180786 186.164902,299.720001 184.361145,294.286499 
	C184.168015,289.631165 184.131073,285.274658 184.025269,280.457214 
	C184.001450,274.639435 184.046509,269.282532 184.019531,263.462463 
	C183.994110,257.642242 184.040710,252.285156 184.017670,246.464874 
	C183.997162,239.975876 184.046295,233.950089 184.021942,227.460403 
	C184.236282,220.272873 184.524109,213.549240 184.824738,206.410583 
	C187.209610,202.051804 190.738861,200.661224 195.240799,200.951721 
	C198.503067,201.162231 201.791122,200.973053 205.530792,200.900970 
	C228.323532,200.894028 250.653671,200.888824 272.982147,201.079422 
	C275.699432,201.102600 278.407684,202.179016 281.466248,202.913330 
	C282.606476,207.738129 283.400604,212.416901 284.285919,217.547424 
	C284.317596,221.032394 284.258087,224.065628 284.194763,227.991974 
	C284.251007,231.920929 284.311035,234.956726 284.278992,238.449982 
	C284.247559,243.274246 284.308228,247.641037 284.279297,252.465607 
	C284.250458,257.953308 284.311188,262.983246 284.283478,268.470093 
	C284.256775,273.623047 284.318542,278.319092 284.380280,283.015167 
	C284.281128,286.702576 284.181976,290.390015 284.103943,294.538147 
	C282.067108,299.803589 278.250336,301.163788 273.290955,301.049652 
	C264.840332,300.855133 256.381500,301.017029 247.460922,301.094116 
	C229.973724,301.118866 212.951706,301.078644 195.464340,301.100616 
M274.836578,234.253113 
	C273.622986,231.150040 272.409363,228.046951 271.030823,224.263962 
	C268.400909,221.485641 265.771027,218.707306 262.698853,215.376999 
	C245.342560,206.482956 233.124054,208.739243 221.246613,223.392624 
	C218.916748,227.845245 220.091614,231.601746 223.977310,234.322723 
	C228.111603,237.217758 231.802719,235.644608 235.154221,232.461838 
	C242.073486,225.890869 245.494354,225.326752 254.256409,229.755447 
	C255.718765,232.175629 257.181122,234.595825 258.438660,237.844833 
	C256.847473,241.858383 255.256256,245.871933 253.057281,250.228027 
	C248.894012,254.765366 248.591980,259.279449 252.214859,262.818848 
	C255.826202,266.346954 260.824432,266.257660 264.788666,261.594849 
	C268.235504,257.540558 270.699432,252.650665 273.951813,247.489944 
	C274.230225,243.326935 274.508636,239.163910 274.836578,234.253113 
M212.891495,254.769089 
	C214.477264,253.088333 216.343704,251.591110 217.588486,249.687393 
	C219.940628,246.090164 219.610947,242.426376 216.601166,239.276581 
	C213.759155,236.302414 208.951691,235.932404 205.788605,238.620270 
	C200.031952,243.512085 195.287109,249.138046 193.936310,257.779083 
	C192.580032,264.277039 193.487732,270.406342 197.030701,276.803558 
	C208.673492,295.509247 232.258209,297.317200 246.008896,280.283020 
	C247.677841,278.215546 248.457306,274.207245 247.664536,271.734680 
	C246.936981,269.465454 243.677170,266.904083 241.258942,266.591431 
	C238.838776,266.278473 235.623306,268.062134 233.550140,269.848114 
	C226.088272,276.276337 221.890259,276.927368 213.587128,271.411621 
	C209.028275,266.298798 209.280396,260.818146 212.891495,254.769089 
M222.377975,251.256485 
	C220.486740,253.134293 218.508484,254.933350 216.722855,256.906738 
	C213.297531,260.692169 213.297119,265.086334 216.581573,268.557617 
	C219.619446,271.768280 224.785202,272.139282 228.273438,268.790741 
	C234.629318,262.689453 240.669037,256.258759 247.458969,249.671432 
	C248.984192,248.155029 250.626953,246.738007 252.010666,245.101929 
	C255.083969,241.468109 255.000122,236.445236 251.961838,233.403564 
	C248.644958,230.082993 243.663223,230.038803 240.003815,233.637314 
	C234.230988,239.314102 228.645279,245.181168 222.377975,251.256485 
z"/>
<path fill="#FFF9FB" opacity="1.000000" stroke="none" 
	d="
M317.986084,262.537598 
	C318.010132,267.361206 317.965118,271.721313 317.991821,276.541687 
	C317.881927,277.904053 317.700317,278.806152 317.424042,280.178162 
	C316.349884,279.340363 315.612732,278.765442 314.419434,277.736267 
	C309.697571,273.093781 305.431824,268.905548 301.117798,264.274292 
	C300.991364,259.221558 300.913239,254.611771 300.896362,249.543915 
	C301.029602,245.148880 301.101562,241.211899 301.465637,237.105087 
	C305.942780,232.663239 310.127808,228.391220 314.312866,224.119202 
	C315.201263,223.469376 316.089630,222.819550 317.454590,221.821136 
	C317.653442,223.271439 317.792450,224.285049 317.998535,225.650543 
	C318.019196,232.358078 317.972748,238.713730 317.993164,245.533691 
	C318.012360,251.356705 317.964691,256.715393 317.986084,262.537598 
z"/>
<path fill="#FF5696" opacity="1.000000" stroke="none" 
	d="
M301.166077,264.717285 
	C305.431824,268.905548 309.697571,273.093781 314.134766,277.578705 
	C304.597626,279.585663 294.889038,281.295929 284.780396,283.010681 
	C284.318542,278.319092 284.256775,273.623047 284.708130,268.466125 
	C290.536194,266.909271 295.851135,265.813263 301.166077,264.717285 
z"/>
<path fill="#FF7078" opacity="1.000000" stroke="none" 
	d="
M313.846588,224.083801 
	C310.127808,228.391220 305.942780,232.663239 301.221710,236.784103 
	C295.247467,237.086151 289.809265,237.539352 284.371063,237.992554 
	C284.311035,234.956726 284.251007,231.920929 284.283813,228.437195 
	C291.778259,226.878098 299.175507,225.736206 306.584167,224.674362 
	C308.833252,224.352005 311.114044,224.250839 313.846588,224.083801 
z"/>
<path fill="#FF5C92" opacity="1.000000" stroke="none" 
	d="
M213.895187,272.034241 
	C221.890259,276.927368 226.088272,276.276337 233.550140,269.848114 
	C235.623306,268.062134 238.838776,266.278473 241.258942,266.591431 
	C243.677170,266.904083 246.936981,269.465454 247.664536,271.734680 
	C248.457306,274.207245 247.677841,278.215546 246.008896,280.283020 
	C232.258209,297.317200 208.673492,295.509247 197.207367,276.149963 
	C202.887741,274.342346 208.391464,273.188293 213.895187,272.034241 
z"/>
<path fill="#FF7B6C" opacity="1.000000" stroke="none" 
	d="
M253.920563,229.175201 
	C245.494354,225.326752 242.073486,225.890869 235.154221,232.461838 
	C231.802719,235.644608 228.111603,237.217758 223.977310,234.322723 
	C220.091614,231.601746 218.916748,227.845245 221.982391,223.182785 
	C230.803436,221.818741 238.914230,220.815765 246.965103,219.457581 
	C252.400818,218.540573 257.752075,217.122787 263.141113,215.928986 
	C265.771027,218.707306 268.400909,221.485641 270.677551,224.621552 
	C266.339600,225.649307 262.326904,226.191223 258.384125,227.053009 
	C256.816528,227.395645 255.403809,228.446671 253.920563,229.175201 
z"/>
<path fill="#FF6685" opacity="1.000000" stroke="none" 
	d="
M246.840668,249.965500 
	C240.669037,256.258759 234.629318,262.689453 228.273438,268.790741 
	C224.785202,272.139282 219.619446,271.768280 216.581573,268.557617 
	C213.297119,265.086334 213.297531,260.692169 216.722855,256.906738 
	C218.508484,254.933350 220.486740,253.134293 222.843811,251.428925 
	C224.311600,251.861374 225.345779,252.431793 226.310318,252.331589 
	C233.161758,251.619797 239.998947,250.770782 246.840668,249.965500 
z"/>
<path fill="#FF7078" opacity="1.000000" stroke="none" 
	d="
M247.149811,249.818466 
	C239.998947,250.770782 233.161758,251.619797 226.310318,252.331589 
	C225.345779,252.431793 224.311600,251.861374 223.145004,251.284531 
	C228.645279,245.181168 234.230988,239.314102 240.003815,233.637314 
	C243.663223,230.038803 248.644958,230.082993 251.961838,233.403564 
	C255.000122,236.445236 255.083969,241.468109 252.010666,245.101929 
	C250.626953,246.738007 248.984192,248.155029 247.149811,249.818466 
z"/>
<path fill="#FF7078" opacity="1.000000" stroke="none" 
	d="
M194.154587,257.000244 
	C195.287109,249.138046 200.031952,243.512085 205.788605,238.620270 
	C208.951691,235.932404 213.759155,236.302414 216.601166,239.276581 
	C219.610947,242.426376 219.940628,246.090164 217.588486,249.687393 
	C216.343704,251.591110 214.477264,253.088333 212.147614,254.909775 
	C205.654022,255.700394 199.904312,256.350311 194.154587,257.000244 
z"/>
<path fill="#FF6685" opacity="1.000000" stroke="none" 
	d="
M194.045441,257.389648 
	C199.904312,256.350311 205.654022,255.700394 211.872803,255.086609 
	C209.280396,260.818146 209.028275,266.298798 213.741150,271.722900 
	C208.391464,273.188293 202.887741,274.342346 197.153870,275.810150 
	C193.487732,270.406342 192.580032,264.277039 194.045441,257.389648 
z"/>
<path fill="#FF7D67" opacity="1.000000" stroke="none" 
	d="
M262.919983,215.653000 
	C257.752075,217.122787 252.400818,218.540573 246.965103,219.457581 
	C238.914230,220.815765 230.803436,221.818741 222.260651,222.950912 
	C233.124054,208.739243 245.342560,206.482956 262.919983,215.653000 
z"/>
<path fill="#FF618B" opacity="1.000000" stroke="none" 
	d="
M301.117798,264.274292 
	C295.851135,265.813263 290.536194,266.909271 284.796570,268.009216 
	C284.311188,262.983246 284.250458,257.953308 284.699188,252.462982 
	C290.417450,251.335724 295.626282,250.668854 300.835083,250.001984 
	C300.913239,254.611771 300.991364,259.221558 301.117798,264.274292 
z"/>
<path fill="#FF6685" opacity="1.000000" stroke="none" 
	d="
M273.597748,248.130035 
	C270.699432,252.650665 268.235504,257.540558 264.788666,261.594849 
	C260.824432,266.257660 255.826202,266.346954 252.214859,262.818848 
	C248.591980,259.279449 248.894012,254.765366 253.836121,250.091125 
	C260.942566,249.346146 267.270172,248.738098 273.597748,248.130035 
z"/>
<path fill="#FF6B80" opacity="1.000000" stroke="none" 
	d="
M300.896362,249.543915 
	C295.626282,250.668854 290.417450,251.335724 284.788757,252.005219 
	C284.308228,247.641037 284.247559,243.274246 284.278992,238.449997 
	C289.809265,237.539352 295.247467,237.086151 300.929565,236.953949 
	C301.101562,241.211899 301.029602,245.148880 300.896362,249.543915 
z"/>
<path fill="#FF6A7B" opacity="1.000000" stroke="none" 
	d="
M273.774780,247.809998 
	C267.270172,248.738098 260.942566,249.346146 254.140015,249.919846 
	C255.256256,245.871933 256.847473,241.858383 258.935913,237.424042 
	C264.551147,236.335800 269.669098,235.668350 274.787048,235.000885 
	C274.508636,239.163910 274.230225,243.326935 273.774780,247.809998 
z"/>
<path fill="#FF766F" opacity="1.000000" stroke="none" 
	d="
M274.811829,234.626999 
	C269.669098,235.668350 264.551147,236.335800 259.038330,237.009628 
	C257.181122,234.595825 255.718765,232.175629 254.088486,229.465332 
	C255.403809,228.446671 256.816528,227.395645 258.384125,227.053009 
	C262.326904,226.191223 266.339600,225.649307 270.760010,224.961517 
	C272.409363,228.046951 273.622986,231.150040 274.811829,234.626999 
z"/>
</svg>